<svg id="Layer_1" data-name="Layer 1" xmlns="http://www.w3.org/2000/svg" viewBox="0 0 57.32 65.08"><defs><style>.cls-1{fill:#231f20;}</style></defs><g id="Layer_2" data-name="Layer 2"><g id="Layer_1-2" data-name="Layer 1-2"><g id="Layer_2-2" data-name="Layer 2-2"><g id="Layer_1-2-2" data-name="Layer 1-2-2"><path class="cls-1" d="M55.21,29.62l-10-5.91a1.61,1.61,0,0,0-1.29,0l-6.83,4.07a2.81,2.81,0,0,1-3.33,0,7,7,0,0,0-3.32-.56,7.38,7.38,0,0,0-4.06,1.11,6.56,6.56,0,0,0-3,3.32,12.3,12.3,0,0,0-1.11,5.17V54.18a.39.39,0,0,0,.37.37h.19l32.68-19a3.14,3.14,0,0,0,1.42-4.21l-.12-.22A6.18,6.18,0,0,0,55.21,29.62Z"/><path class="cls-1" d="M11.45,18.73A.83.83,0,0,1,12,18h9.24a.82.82,0,0,1,.74.55h0v2.59a.18.18,0,0,0,.18.18h.18a16.09,16.09,0,0,1,3.7-2.4,14.81,14.81,0,0,1,7.38-1.48h.74s.19,0,.19-.18a.2.2,0,0,0-.19-.19L5,.44A3.36,3.36,0,0,0,.41,1.67l0,.07A5.26,5.26,0,0,0,0,3.4V61.75a3.31,3.31,0,0,0,3.29,3.33h0A5.68,5.68,0,0,0,5,64.71L10.9,61a1,1,0,0,0,.55-.92Z"/></g></g></g></g></svg>